<svg width="69" height="69" viewBox="0 0 69 69" fill="none" xmlns="http://www.w3.org/2000/svg">
<path fill-rule="evenodd" clip-rule="evenodd" d="M34.5 69C53.5538 69 69 53.5538 69 34.5C69 15.4462 53.5538 0 34.5 0C15.4462 0 0 15.4462 0 34.5C0 53.5538 15.4462 69 34.5 69Z" fill="#5454D4" fill-opacity="0.1"/>
<path d="M28.0132 47.3333H41.9866C45.6666 47.3333 47.1332 45.08 47.3066 42.3333L47.9999 31.32C48.1866 28.44 45.8932 26 42.9999 26C42.1866 26 41.4399 25.5333 41.0666 24.8133L40.1066 22.88C39.4932 21.6666 37.8932 20.6666 36.5332 20.6666H33.4799C32.1066 20.6666 30.5066 21.6666 29.8932 22.88L28.9332 24.8133C28.5599 25.5333 27.8132 26 26.9999 26C24.1066 26 21.8132 28.44 21.9999 31.32L22.6932 42.3333C22.8532 45.08 24.3332 47.3333 28.0132 47.3333Z" stroke="#5454D4" stroke-width="2" stroke-linecap="round" stroke-linejoin="round"/>
<path d="M33 28.6666H37" stroke="#5454D4" stroke-width="2" stroke-linecap="round" stroke-linejoin="round"/>
<path d="M35.0003 42C37.387 42 39.3337 40.0534 39.3337 37.6667C39.3337 35.28 37.387 33.3334 35.0003 33.3334C32.6137 33.3334 30.667 35.28 30.667 37.6667C30.667 40.0534 32.6137 42 35.0003 42Z" stroke="#5454D4" stroke-width="2" stroke-linecap="round" stroke-linejoin="round"/>
</svg>
