<svg width="428" height="714" viewBox="0 0 428 714" fill="none" xmlns="http://www.w3.org/2000/svg">
<path d="M68 466C68 548.667 82.3333 609.333 111 648C140.333 686.667 178.667 706 226 706C292.667 706 352 696 404 676L407 683C353.667 703.667 293.333 714 226 714C159.333 714 105 694 63 654C21 614 2.83122e-06 552.333 2.83122e-06 469C2.83122e-06 385.667 22 321 66 275C110 229 166 206 234 206C288.667 206 334.667 222.333 372 255C409.333 287.667 428 336 428 400C428 403.333 428 406.667 428 410H71C69 428 68 446.667 68 466ZM360 402C359.333 338 347 290.667 323 260C299 229.333 268 214 230 214C192 214 158 230.667 128 264C98.6667 297.333 80 343.333 72 402H360ZM112 -3.8147e-05L184 2L230 143H217L112 -3.8147e-05Z" fill="white"/>
</svg>
