<svg width="69" height="69" viewBox="0 0 69 69" fill="none" xmlns="http://www.w3.org/2000/svg">
<path fill-rule="evenodd" clip-rule="evenodd" d="M34.5 69C53.5538 69 69 53.5538 69 34.5C69 15.4462 53.5538 0 34.5 0C15.4462 0 0 15.4462 0 34.5C0 53.5538 15.4462 69 34.5 69Z" fill="#FEDC5A" fill-opacity="0.1"/>
<path d="M31.0004 35.3334C30.1204 35.7734 29.387 36.4267 28.8404 37.24C28.5337 37.7067 28.5337 38.2934 28.8404 38.76C29.387 39.5734 30.1204 40.2267 31.0004 40.6667" stroke="#FEDC5A" stroke-width="2" stroke-linecap="round" stroke-linejoin="round"/>
<path d="M39.2803 35.3334C40.1603 35.7734 40.8936 36.4267 41.4403 37.24C41.7469 37.7067 41.7469 38.2934 41.4403 38.76C40.8936 39.5734 40.1603 40.2267 39.2803 40.6667" stroke="#FEDC5A" stroke-width="2" stroke-linecap="round" stroke-linejoin="round"/>
<path d="M31.0003 47.3333H39.0003C45.667 47.3333 48.3337 44.6666 48.3337 38V30C48.3337 23.3333 45.667 20.6666 39.0003 20.6666H31.0003C24.3337 20.6666 21.667 23.3333 21.667 30V38C21.667 44.6666 24.3337 47.3333 31.0003 47.3333Z" stroke="#FEDC5A" stroke-width="2" stroke-linecap="round" stroke-linejoin="round"/>
<path d="M21.9736 28.68L47.6003 28.6666" stroke="#FEDC5A" stroke-width="2" stroke-linecap="round" stroke-linejoin="round"/>
</svg>
